<svg id="svg" version="1.1" xmlns="http://www.w3.org/2000/svg" xmlns:xlink="http://www.w3.org/1999/xlink" width="400" height="400" viewBox="0, 0, 400,400"><g id="svgg"><path id="path0" d="M197.266 105.339 C 164.616 108.581,137.767 133.064,132.228 164.648 C 131.767 167.276,130.958 175.568,131.132 175.879 C 131.786 177.048,132.422 175.989,132.422 173.730 C 132.422 170.619,133.691 162.889,134.907 158.594 C 143.572 127.979,170.387 107.412,203.289 106.144 C 204.725 106.088,205.663 105.869,205.763 105.566 C 205.920 105.091,201.068 104.961,197.266 105.339 M209.101 106.508 C 208.806 107.278,208.627 107.218,214.062 108.166 C 234.407 111.716,252.153 124.577,262.747 143.450 C 267.036 151.092,270.703 161.593,270.703 166.235 L 270.703 167.578 268.262 167.661 C 265.161 167.766,257.676 167.571,257.485 167.381 C 257.406 167.302,257.190 165.890,257.006 164.244 C 255.573 151.468,245.586 136.030,233.395 127.745 C 226.644 123.158,214.063 118.435,214.063 120.489 C 214.063 121.096,213.700 121.127,210.059 120.832 C 204.015 120.343,197.519 120.538,193.164 121.339 C 191.016 121.735,188.511 122.039,187.598 122.016 C 185.866 121.971,185.667 122.202,186.343 123.465 C 186.709 124.149,186.853 124.171,187.808 123.691 C 189.180 123.001,195.617 121.983,200.586 121.671 C 204.068 121.452,207.106 121.653,212.931 122.489 C 214.533 122.719,214.752 122.659,214.940 121.939 C 215.520 119.722,229.542 125.925,236.262 131.371 C 246.954 140.036,256.250 156.039,256.250 165.779 L 256.250 167.578 251.433 167.578 C 245.955 167.578,246.106 167.670,245.306 163.867 C 244.497 160.028,243.265 156.641,242.677 156.641 C 242.289 156.641,242.191 156.861,242.374 157.324 C 243.447 160.042,244.927 164.956,244.949 165.878 C 245.016 168.571,244.167 168.401,258.519 168.599 C 273.651 168.809,272.339 169.310,271.303 163.717 C 266.257 136.456,242.938 112.461,216.602 107.427 C 214.238 106.976,211.632 106.459,210.810 106.279 C 209.653 106.026,209.267 106.078,209.101 106.508 M197.461 112.148 C 171.583 114.840,148.133 134.715,140.459 160.460 C 137.903 169.037,137.687 168.822,149.219 169.178 L 152.148 169.268 152.404 166.763 C 152.683 164.023,154.027 158.432,154.921 156.293 C 155.361 155.240,155.381 154.874,155.008 154.644 C 154.687 154.446,154.373 154.805,154.054 155.734 C 153.098 158.515,151.927 163.267,151.650 165.492 L 151.365 167.773 147.175 167.884 C 139.730 168.081,139.371 167.665,141.251 161.012 C 151.493 124.776,191.458 104.022,225.646 117.186 C 228.453 118.267,230.217 118.290,229.082 117.232 C 225.648 114.029,207.470 111.107,197.461 112.148 M232.124 121.548 C 231.422 122.250,231.530 122.656,232.417 122.656 C 232.845 122.656,233.504 122.916,233.882 123.232 C 234.261 123.549,236.180 125.000,238.147 126.455 C 250.879 135.875,261.161 151.593,262.392 163.520 C 262.538 164.938,262.784 165.625,263.145 165.625 C 265.403 165.625,259.236 149.080,254.122 141.417 C 249.192 134.031,236.650 122.266,233.707 122.266 C 233.585 122.266,233.287 121.996,233.046 121.665 C 232.697 121.189,232.507 121.165,232.124 121.548 M179.688 123.552 C 169.731 128.043,153.669 142.364,156.787 143.971 C 156.814 143.985,158.374 145.169,160.255 146.603 L 163.673 149.210 164.747 147.947 C 169.011 142.931,175.743 136.831,178.809 135.204 C 179.557 134.807,180.075 133.594,179.496 133.594 C 178.133 133.594,168.982 141.385,165.820 145.236 C 163.459 148.112,163.873 148.072,160.738 145.728 C 159.319 144.668,157.957 143.733,157.711 143.651 C 156.422 143.221,161.949 136.927,167.668 132.312 C 171.972 128.839,178.667 124.941,182.805 123.499 C 183.454 123.272,183.984 122.815,183.984 122.481 C 183.984 121.639,183.861 121.670,179.688 123.552 M186.413 126.764 C 178.877 129.664,165.954 139.154,167.118 140.933 C 167.357 141.298,168.352 140.537,170.735 138.166 C 175.780 133.149,181.264 129.726,187.793 127.522 C 189.565 126.923,191.016 126.287,191.016 126.107 C 191.016 125.507,188.891 125.810,186.413 126.764 M197.260 125.907 C 197.150 126.023,196.095 126.195,194.916 126.289 C 193.141 126.432,192.773 126.587,192.773 127.195 C 192.773 127.711,193.006 127.892,193.555 127.804 C 203.641 126.183,211.634 127.077,220.245 130.789 C 222.167 131.617,224.229 132.680,224.827 133.151 C 226.083 134.139,227.066 133.699,226.136 132.567 C 225.198 131.425,217.969 128.218,213.867 127.125 C 210.141 126.132,197.900 125.234,197.260 125.907 M196.881 131.823 C 191.123 132.917,185.615 135.254,180.859 138.621 C 175.613 142.335,167.235 151.767,168.267 152.798 C 168.543 153.075,169.190 152.434,170.333 150.752 C 182.404 132.975,206.231 127.287,222.533 138.289 C 224.507 139.621,225.112 139.743,224.928 138.770 C 224.780 137.990,220.002 135.154,216.797 133.943 C 210.475 131.553,202.669 130.722,196.881 131.823 M228.738 132.378 C 228.620 132.569,229.445 133.426,230.570 134.283 C 233.156 136.251,236.328 139.261,236.328 139.746 C 236.328 139.950,234.298 141.721,231.818 143.681 L 227.308 147.245 225.200 145.529 C 208.597 132.005,185.053 135.926,173.048 154.214 C 169.444 159.703,165.933 171.809,168.196 170.940 C 168.536 170.810,168.863 170.703,168.923 170.703 C 168.983 170.703,168.950 170.271,168.849 169.742 C 168.547 168.166,169.896 162.917,171.473 159.524 C 181.315 138.359,207.431 132.102,224.675 146.777 C 225.748 147.690,226.838 148.438,227.097 148.438 C 227.678 148.438,238.028 140.670,238.237 140.077 C 238.320 139.841,238.725 139.326,239.136 138.931 C 239.742 138.349,239.793 138.104,239.401 137.633 C 238.986 137.132,238.846 137.191,238.392 138.057 C 237.717 139.346,237.803 139.373,235.848 137.253 C 232.777 133.921,229.270 131.517,228.738 132.378 M240.879 143.153 C 240.757 143.469,240.874 143.952,241.138 144.227 C 244.306 147.526,250.256 159.290,249.745 161.244 C 249.490 162.216,250.058 162.395,250.750 161.561 C 251.615 160.518,247.648 151.574,243.973 146.282 C 243.075 144.990,242.224 143.627,242.081 143.255 C 241.763 142.427,241.176 142.377,240.879 143.153 M237.093 145.919 C 236.816 146.252,234.690 148.035,232.369 149.882 C 230.048 151.728,228.242 153.389,228.355 153.572 C 228.627 154.012,229.688 154.004,229.688 153.563 C 229.688 153.374,231.226 151.982,233.105 150.470 C 238.950 145.770,239.388 145.347,238.427 145.328 C 237.970 145.320,237.369 145.585,237.093 145.919 M152.689 147.916 C 151.416 148.255,147.911 156.152,146.532 161.788 C 145.542 165.836,145.554 165.625,146.314 165.625 C 146.668 165.625,146.888 165.338,146.837 164.941 C 146.542 162.607,151.624 149.367,152.982 148.934 C 153.226 148.857,153.665 149.022,153.959 149.302 C 154.252 149.582,155.986 151.032,157.813 152.523 C 159.639 154.015,161.986 156.015,163.029 156.969 C 164.514 158.325,165.000 158.584,165.268 158.160 C 165.484 157.818,165.428 157.472,165.118 157.227 C 162.499 155.148,154.787 148.623,154.449 148.200 C 154.008 147.647,153.812 147.616,152.689 147.916 M190.390 148.079 C 188.563 148.447,186.873 149.491,185.593 151.044 C 183.192 153.957,183.203 153.832,183.203 177.804 L 183.203 199.609 184.026 199.609 C 184.478 199.609,185.514 200.136,186.327 200.780 C 191.240 204.671,201.042 206.966,208.217 205.905 C 212.008 205.344,217.578 203.533,217.578 202.861 C 217.578 202.182,217.369 202.202,214.719 203.133 C 206.411 206.053,197.631 205.699,190.649 202.161 C 185.558 199.581,185.677 199.556,203.024 199.633 L 217.773 199.699 217.874 173.739 L 217.974 147.780 204.748 147.816 C 197.474 147.835,191.013 147.954,190.390 148.079 M216.992 173.828 L 216.992 198.633 200.994 198.633 L 184.995 198.633 184.481 196.875 C 184.079 195.501,183.990 190.769,184.073 175.195 C 184.193 152.860,184.063 153.878,187.173 150.900 C 189.269 148.893,189.493 148.867,203.711 148.948 L 216.992 149.023 216.992 173.828 M232.617 155.727 C 228.750 158.654,225.527 161.200,225.456 161.384 C 224.959 162.659,227.721 161.032,233.172 156.836 C 240.171 151.450,239.891 151.597,240.752 152.832 C 241.625 154.084,241.647 152.684,240.775 151.353 C 239.929 150.062,240.516 149.747,232.617 155.727 M193.467 153.504 C 189.463 154.455,189.458 154.485,189.455 175.284 L 189.453 192.560 190.332 193.117 C 191.297 193.729,208.141 194.461,209.721 193.960 C 211.663 193.343,211.719 192.776,211.719 173.487 L 211.719 155.529 210.707 154.327 L 209.696 153.125 202.211 153.165 C 198.095 153.187,194.160 153.340,193.467 153.504 M209.679 154.905 L 210.547 155.513 210.547 173.580 C 210.547 194.259,210.743 193.078,207.335 192.893 L 205.121 192.773 204.926 181.055 C 204.819 174.609,204.722 166.919,204.710 163.965 L 204.688 158.594 199.409 158.594 L 194.131 158.594 194.234 173.535 L 194.336 188.477 196.973 188.592 L 199.609 188.708 199.609 173.804 C 199.609 160.375,199.670 158.924,200.227 159.138 C 200.567 159.268,201.534 159.375,202.376 159.375 L 203.906 159.375 203.906 176.172 L 203.906 192.969 197.852 192.969 C 189.339 192.969,190.226 195.106,190.273 174.707 C 190.316 156.291,190.302 156.435,192.164 155.180 C 193.875 154.027,208.106 153.803,209.679 154.905 M158.406 159.473 C 157.121 163.322,156.389 173.166,156.977 178.707 C 157.205 180.853,157.243 182.757,157.063 182.937 C 156.525 183.475,146.360 183.763,144.974 183.280 C 143.733 182.847,143.509 183.000,144.076 183.892 C 144.375 184.363,147.782 184.621,155.133 184.728 C 157.561 184.763,157.744 184.828,157.973 185.742 C 158.318 187.117,158.912 186.956,159.057 185.449 C 159.175 184.223,159.240 184.180,160.938 184.180 L 162.695 184.180 162.801 176.270 C 162.870 171.080,162.770 168.359,162.508 168.359 C 162.289 168.359,162.109 168.608,162.109 168.913 C 162.109 169.217,161.890 169.547,161.621 169.645 C 161.230 169.788,161.230 169.928,161.621 170.342 C 161.969 170.711,162.109 172.622,162.109 176.990 L 162.109 183.121 160.515 183.273 C 158.113 183.502,158.017 183.134,158.012 173.633 C 158.009 167.030,158.139 164.972,158.680 163.086 C 159.050 161.797,159.466 160.347,159.605 159.863 C 159.879 158.906,158.721 158.529,158.406 159.473 M198.691 161.426 C 198.555 162.554,198.443 168.970,198.441 175.684 L 198.438 187.891 196.680 187.891 L 194.922 187.891 194.922 173.633 L 194.922 159.375 196.929 159.375 L 198.937 159.375 198.691 161.426 M239.365 164.941 C 239.521 165.640,239.648 168.984,239.648 172.373 C 239.648 177.387,239.748 178.516,240.184 178.428 C 240.617 178.341,240.700 177.116,240.614 172.070 C 240.556 168.633,240.510 165.337,240.511 164.746 C 240.512 163.964,240.318 163.672,239.797 163.672 C 239.193 163.672,239.126 163.868,239.365 164.941 M251.038 163.936 C 250.503 164.470,250.812 165.234,251.563 165.234 C 251.992 165.234,252.344 165.080,252.344 164.892 C 252.344 164.379,251.334 163.640,251.038 163.936 M233.203 167.350 C 233.203 167.655,233.015 167.966,232.785 168.043 C 232.503 168.137,232.380 171.177,232.407 177.432 C 232.448 186.776,232.062 190.359,230.769 192.670 C 229.790 194.418,226.914 197.617,225.580 198.441 C 224.113 199.348,223.878 199.894,224.803 200.249 C 225.767 200.619,230.325 195.896,231.701 193.100 C 233.226 190.004,233.555 187.192,233.577 177.074 C 233.586 172.736,233.746 169.093,233.932 168.978 C 234.355 168.716,234.017 166.797,233.548 166.797 C 233.358 166.797,233.203 167.046,233.203 167.350 M171.005 175.097 C 171.064 177.729,171.192 180.248,171.289 180.695 C 171.647 182.340,175.476 183.057,176.697 181.708 C 177.449 180.877,177.686 170.313,176.953 170.313 C 176.712 170.313,176.563 172.323,176.563 175.563 C 176.563 181.229,176.534 181.306,174.387 181.367 C 172.331 181.425,172.205 181.078,172.239 175.440 C 172.267 170.799,172.205 170.312,171.584 170.312 C 170.962 170.311,170.908 170.753,171.005 175.097 M226.563 174.414 C 226.563 176.888,226.718 178.516,226.953 178.516 C 227.189 178.516,227.344 176.888,227.344 174.414 C 227.344 171.940,227.189 170.313,226.953 170.313 C 226.718 170.313,226.563 171.940,226.563 174.414 M272.662 172.351 C 272.659 172.758,272.445 172.941,272.121 172.817 C 271.826 172.704,271.472 172.906,271.334 173.265 C 271.116 173.833,270.659 173.887,267.866 173.669 C 263.688 173.344,263.823 173.180,263.554 178.906 C 263.427 181.592,263.249 184.141,263.157 184.570 C 262.540 187.467,262.476 189.063,262.977 189.063 C 263.512 189.063,264.180 184.713,264.718 177.739 L 264.957 174.636 268.663 174.525 C 272.614 174.407,273.954 173.714,273.037 172.263 C 272.722 171.765,272.667 171.778,272.662 172.351 M137.686 173.352 C 136.956 173.864,137.890 187.212,138.690 187.706 C 139.350 188.114,139.396 187.156,138.860 184.152 C 138.557 182.449,138.302 179.594,138.295 177.808 L 138.281 174.561 146.302 174.651 C 152.002 174.714,154.454 174.608,154.778 174.284 C 155.029 174.033,155.067 173.819,154.863 173.807 C 154.659 173.795,150.862 173.804,146.426 173.827 C 141.262 173.853,138.310 173.725,138.223 173.470 C 138.148 173.251,137.906 173.198,137.686 173.352 M248.946 173.346 C 247.855 174.063,249.293 174.414,253.320 174.414 L 257.617 174.414 257.617 176.367 L 257.617 178.320 255.859 178.413 C 246.627 178.897,244.604 179.688,252.595 179.688 L 257.533 179.688 257.295 181.966 C 256.899 185.751,257.000 185.664,253.261 185.467 C 250.666 185.331,250.000 185.406,250.000 185.835 C 250.000 186.158,249.804 186.260,249.512 186.089 C 249.243 185.932,249.312 186.141,249.665 186.554 C 250.261 187.251,250.260 187.459,249.652 189.453 L 248.996 191.602 246.528 191.673 C 245.170 191.712,243.793 191.847,243.467 191.972 C 243.008 192.148,242.930 192.000,243.120 191.314 C 243.550 189.765,244.461 185.054,244.878 182.227 C 245.621 177.182,245.720 175.589,245.326 175.000 C 244.977 174.479,244.928 174.479,244.885 175.000 C 244.439 180.352,243.703 185.396,242.753 189.614 C 242.224 191.958,241.869 193.953,241.964 194.047 C 242.257 194.340,242.969 193.731,242.969 193.187 C 242.969 192.473,244.245 192.205,245.887 192.576 C 246.644 192.746,250.008 192.896,253.364 192.908 C 256.720 192.920,259.552 193.015,259.656 193.120 C 260.202 193.665,255.343 205.799,254.328 206.426 C 253.977 206.643,253.976 206.840,254.326 207.261 C 254.972 208.040,255.859 207.946,255.859 207.099 C 255.859 206.706,256.547 204.798,257.388 202.860 C 260.601 195.451,261.072 192.537,259.355 190.693 C 258.290 189.550,257.642 189.612,258.410 190.784 L 259.026 191.723 254.352 191.770 L 249.678 191.816 250.602 189.170 L 251.525 186.523 254.446 186.410 C 257.757 186.281,257.400 186.735,258.193 181.641 C 259.306 174.489,258.857 173.493,254.516 173.477 C 252.703 173.470,250.813 173.369,250.317 173.252 C 249.820 173.135,249.204 173.177,248.946 173.346 M144.043 179.119 C 143.298 179.902,144.055 180.078,148.164 180.078 C 151.076 180.078,152.738 180.238,153.047 180.547 C 153.411 180.911,153.620 180.911,153.984 180.547 C 154.309 180.222,154.328 179.953,154.046 179.671 C 153.557 179.182,144.461 178.680,144.043 179.119 M224.609 180.859 L 224.609 182.422 226.367 182.422 L 228.125 182.422 228.125 180.859 L 228.125 179.297 226.367 179.297 L 224.609 179.297 224.609 180.859 M167.754 184.630 C 168.490 188.612,171.581 194.589,175.375 199.363 C 185.433 212.020,203.398 216.049,219.214 209.194 C 220.968 208.434,222.460 207.813,222.530 207.813 C 222.599 207.813,222.656 210.449,222.656 213.672 C 222.656 216.895,222.809 219.531,222.996 219.531 C 223.541 219.531,223.819 216.947,223.824 211.849 L 223.828 207.096 227.158 204.496 C 232.477 200.343,236.672 194.651,238.102 189.648 C 238.470 188.359,239.013 186.526,239.308 185.575 C 239.993 183.362,239.982 183.119,239.199 183.272 C 238.745 183.361,238.338 184.319,237.818 186.523 C 233.558 204.585,210.578 215.996,191.754 209.396 C 181.314 205.736,171.986 195.783,169.400 185.547 C 168.724 182.869,167.281 182.065,167.754 184.630 M162.740 187.818 C 162.632 187.993,160.183 188.125,157.298 188.111 C 152.798 188.089,152.082 188.169,152.259 188.672 C 152.627 189.723,152.782 189.861,153.250 189.557 C 153.503 189.393,155.756 189.258,158.256 189.258 L 162.801 189.258 164.293 192.537 C 169.690 204.391,180.804 214.018,192.773 217.208 C 200.532 219.275,216.386 218.085,219.310 215.215 C 220.151 214.389,219.036 214.455,216.466 215.381 C 195.876 222.809,168.960 209.094,163.854 188.574 C 163.591 187.515,163.124 187.198,162.740 187.818 M143.937 189.355 C 144.086 189.731,144.634 191.533,145.156 193.359 C 146.275 197.271,151.020 207.031,151.803 207.031 C 152.585 207.031,152.525 206.838,150.580 203.073 C 148.606 199.250,146.448 193.816,145.676 190.723 C 145.281 189.139,144.994 188.672,144.416 188.672 C 143.859 188.672,143.736 188.848,143.937 189.355 M150.781 192.773 C 150.781 193.245,151.386 193.359,153.881 193.359 C 158.142 193.359,158.534 193.577,160.323 196.930 C 165.006 205.710,171.025 212.025,179.758 217.321 C 181.408 218.322,182.946 219.141,183.176 219.141 C 184.155 219.141,183.408 218.452,180.757 216.912 C 174.667 213.375,167.798 206.954,164.253 201.484 C 159.794 194.605,159.347 193.751,159.778 192.947 C 160.169 192.214,160.017 192.188,155.482 192.188 C 151.564 192.188,150.781 192.285,150.781 192.773 M154.297 195.941 C 154.297 197.647,159.582 205.968,162.457 208.789 C 163.333 209.648,164.052 210.571,164.056 210.840 C 164.065 211.509,164.819 211.457,165.083 210.769 C 165.210 210.437,164.687 209.660,163.789 208.849 C 161.722 206.981,158.204 201.987,156.389 198.345 C 154.916 195.390,154.297 194.678,154.297 195.941 M252.344 196.484 C 252.344 198.262,248.044 205.425,245.062 208.612 C 243.821 209.939,243.347 210.733,243.523 211.191 C 243.974 212.368,248.764 205.991,252.007 199.896 C 253.725 196.667,253.787 196.448,253.087 196.073 C 252.468 195.742,252.344 195.811,252.344 196.484 M238.292 199.430 C 235.352 203.477,231.575 207.328,227.771 210.156 C 226.008 211.467,225.109 212.375,225.342 212.608 C 226.326 213.592,235.868 204.778,239.578 199.458 C 242.415 195.391,241.245 195.366,238.292 199.430 M246.094 198.193 C 246.094 201.244,233.471 214.257,227.608 217.251 C 226.410 217.863,226.203 218.121,226.563 218.555 C 227.456 219.631,235.598 213.789,240.029 208.893 C 242.806 205.825,247.780 198.563,247.459 198.044 C 247.102 197.466,246.094 197.576,246.094 198.193 M146.484 207.088 C 146.484 207.637,148.636 210.912,150.775 213.618 L 152.362 215.625 157.429 215.625 L 162.497 215.625 165.290 218.188 C 169.204 221.780,174.062 225.000,175.567 225.000 C 176.512 225.000,176.277 223.939,175.275 223.688 C 173.807 223.319,169.916 220.629,166.533 217.642 L 163.362 214.844 158.225 214.844 C 152.259 214.844,152.677 215.081,149.115 209.681 C 147.213 206.798,146.484 206.080,146.484 207.088 M260.152 208.287 C 260.150 208.778,259.275 210.343,258.207 211.765 L 256.264 214.351 253.487 214.624 C 251.959 214.775,249.609 214.780,248.265 214.636 L 245.820 214.375 242.386 217.369 C 235.848 223.070,229.989 226.542,230.337 224.512 C 230.667 222.583,230.011 222.559,226.145 224.357 C 224.119 225.300,222.065 226.194,221.582 226.343 C 221.099 226.493,220.703 226.867,220.703 227.175 C 220.703 227.892,220.357 227.977,224.833 226.159 C 229.775 224.152,229.472 224.169,229.613 225.879 C 229.680 226.685,229.856 227.344,230.004 227.343 C 231.365 227.342,241.144 220.461,244.124 217.409 L 245.866 215.625 251.222 215.625 L 256.578 215.625 259.148 212.123 C 262.069 208.145,261.976 208.368,260.938 207.813 C 260.262 207.451,260.156 207.516,260.152 208.287 M222.848 220.318 C 222.479 220.916,221.124 221.398,216.797 222.472 C 206.919 224.924,197.108 224.705,188.749 221.847 C 184.524 220.402,184.240 220.359,184.078 221.141 C 183.689 223.015,197.150 225.630,205.273 225.258 C 213.879 224.864,225.415 221.792,223.684 220.355 C 223.274 220.015,223.042 220.004,222.848 220.318 M175.695 221.777 C 175.388 222.961,175.792 223.573,176.364 222.790 C 176.835 222.146,177.063 222.194,179.955 223.551 C 181.653 224.348,183.254 225.000,183.513 225.000 C 184.299 225.000,184.040 224.160,183.185 223.936 C 182.745 223.821,181.148 223.135,179.637 222.411 C 176.506 220.910,175.943 220.819,175.695 221.777 M170.410 231.135 C 169.586 231.294,169.531 231.499,169.531 234.444 C 169.531 237.280,169.465 237.557,168.848 237.303 C 163.392 235.066,158.826 241.205,161.723 246.883 C 163.001 249.389,167.028 250.582,168.800 248.978 C 169.442 248.397,169.548 248.399,170.150 249.001 C 170.510 249.360,171.059 249.556,171.371 249.437 C 171.684 249.317,172.188 249.219,172.493 249.219 C 172.955 249.219,173.047 247.703,173.047 240.039 L 173.047 230.859 172.168 230.913 C 171.685 230.942,170.894 231.042,170.410 231.135 M261.035 231.135 L 260.156 231.304 260.156 240.262 L 260.156 249.219 261.914 249.219 L 263.672 249.219 263.672 245.000 C 263.672 240.419,263.897 239.844,265.689 239.844 C 267.245 239.844,267.578 240.803,267.578 245.287 L 267.578 249.219 269.336 249.219 L 271.094 249.219 271.094 244.714 C 271.094 237.427,269.065 235.189,264.355 237.280 C 263.734 237.556,263.672 237.279,263.672 234.221 C 263.672 230.540,263.736 230.615,261.035 231.135 M201.841 232.664 C 201.173 233.333,201.551 236.008,202.344 236.215 C 203.400 236.491,203.326 237.169,202.094 238.499 C 200.914 239.772,201.370 240.166,203.029 239.307 C 204.727 238.430,204.983 237.925,205.134 235.156 L 205.273 232.617 203.697 232.501 C 202.830 232.437,201.995 232.511,201.841 232.664 M144.141 238.893 C 144.141 246.621,143.502 247.761,139.995 246.296 C 138.213 245.551,138.404 245.504,137.705 246.856 C 136.910 248.394,136.910 248.394,138.464 249.043 C 140.456 249.876,143.680 249.768,145.238 248.818 C 147.314 247.553,147.656 246.173,147.656 239.075 L 147.656 232.813 145.898 232.813 L 144.141 232.813 144.141 238.893 M223.828 234.375 L 223.828 235.938 226.358 235.938 L 228.888 235.938 228.995 242.676 L 229.102 249.414 230.762 249.534 L 232.422 249.654 232.422 242.796 L 232.422 235.938 234.766 235.938 L 237.109 235.938 237.109 234.375 L 237.109 232.813 230.469 232.813 L 223.828 232.813 223.828 234.375 M150.684 236.969 C 150.207 237.107,150.000 237.565,150.000 238.482 C 150.000 240.147,150.230 240.273,152.279 239.726 C 153.643 239.362,154.139 239.386,154.964 239.855 C 156.452 240.700,156.158 241.159,153.825 241.637 C 149.619 242.498,147.888 244.753,149.071 247.834 C 149.646 249.333,154.001 250.213,155.876 249.210 C 156.400 248.929,156.841 248.946,157.354 249.267 C 158.423 249.935,160.314 249.388,159.942 248.519 C 159.786 248.152,159.550 245.878,159.419 243.465 C 159.105 237.711,158.521 236.971,154.198 236.850 C 152.641 236.807,151.060 236.860,150.684 236.969 M177.344 237.566 C 172.488 240.822,173.697 248.390,179.274 249.648 C 183.693 250.645,187.275 246.867,186.542 241.982 C 185.892 237.644,180.843 235.220,177.344 237.566 M188.564 236.990 C 187.932 237.155,187.880 237.705,187.979 243.292 L 188.086 249.414 189.648 249.414 L 191.211 249.414 191.323 245.327 C 191.448 240.785,191.873 239.844,193.797 239.844 C 195.372 239.844,195.703 240.788,195.703 245.287 C 195.703 248.147,195.836 249.232,196.191 249.266 C 196.460 249.292,197.207 249.336,197.852 249.364 L 199.023 249.414 199.144 245.898 C 199.412 238.095,196.673 234.520,192.608 237.367 C 191.746 237.971,191.650 237.971,191.208 237.367 C 190.746 236.735,189.970 236.624,188.564 236.990 M209.905 237.106 C 206.297 238.562,207.180 242.468,211.621 244.690 C 214.941 246.352,213.746 247.971,210.133 246.706 C 208.466 246.122,208.372 246.130,207.715 246.921 C 206.749 248.083,206.849 248.401,208.386 249.043 C 215.464 252.001,220.461 245.297,213.672 241.952 C 210.040 240.162,210.608 238.252,214.276 239.923 C 215.273 240.377,216.756 239.339,216.788 238.164 C 216.818 237.103,211.816 236.335,209.905 237.106 M239.067 238.128 C 233.744 242.938,237.942 250.933,245.081 249.579 C 248.943 248.847,248.607 246.855,244.640 246.972 C 242.175 247.045,240.625 246.258,240.625 244.933 C 240.625 244.599,243.912 244.149,246.387 244.144 C 248.046 244.141,248.047 244.140,248.038 242.676 C 248.008 237.434,242.773 234.780,239.067 238.128 M252.429 237.368 C 245.155 240.954,250.717 252.262,258.286 249.277 C 260.450 248.423,259.030 246.426,256.472 246.727 C 253.857 247.034,252.727 245.908,252.747 243.014 C 252.766 240.225,254.216 238.996,256.474 239.855 C 257.600 240.283,258.951 239.295,258.976 238.026 C 258.999 236.795,254.509 236.343,252.429 237.368 M168.957 240.761 C 170.422 242.851,169.022 246.875,166.830 246.875 C 164.080 246.875,163.474 240.861,166.124 239.880 C 167.258 239.461,168.266 239.774,168.957 240.761 M243.594 239.752 C 244.290 240.217,245.008 241.791,244.545 241.839 C 241.757 242.127,240.436 241.912,240.554 241.189 C 240.778 239.829,242.494 239.018,243.594 239.752 M182.394 240.873 C 183.549 242.343,183.480 244.680,182.244 245.916 C 179.597 248.564,176.681 245.075,178.300 241.198 C 179.046 239.413,181.115 239.248,182.394 240.873 M156.250 244.913 C 156.250 246.515,154.692 247.571,153.278 246.927 C 151.819 246.262,152.149 244.859,153.906 244.260 C 155.975 243.555,156.250 243.632,156.250 244.913 M208.203 255.859 C 208.203 256.938,208.312 257.031,209.570 257.031 C 210.829 257.031,210.938 256.938,210.938 255.859 C 210.938 254.781,210.829 254.688,209.570 254.688 C 208.312 254.688,208.203 254.781,208.203 255.859 M168.662 255.687 C 165.258 257.535,166.345 262.104,170.703 264.261 C 173.620 265.705,174.386 267.553,172.436 268.442 C 171.476 268.879,170.638 268.758,167.578 267.740 C 166.672 267.438,165.792 269.084,166.488 269.780 C 168.438 271.730,174.047 271.254,175.408 269.022 C 177.093 266.258,176.291 264.288,172.522 261.939 C 169.262 259.908,168.932 259.456,169.804 258.211 C 170.298 257.506,170.666 257.387,171.825 257.560 C 174.970 258.030,175.076 258.018,175.675 257.129 C 176.812 255.442,171.229 254.294,168.662 255.687 M216.657 258.995 C 211.717 260.476,211.458 268.654,216.292 270.545 C 218.103 271.253,221.101 271.049,221.832 270.169 C 222.585 269.262,221.267 267.907,220.134 268.423 C 218.031 269.381,215.625 267.653,215.625 265.186 C 215.625 261.943,217.260 260.350,219.656 261.257 C 220.722 261.660,220.968 261.633,221.387 261.062 C 222.216 259.933,221.941 259.484,220.140 259.031 C 218.181 258.538,218.185 258.538,216.657 258.995 M180.242 259.721 C 174.018 263.516,179.422 273.047,186.478 270.718 C 188.711 269.981,188.235 268.091,185.979 268.738 C 184.148 269.263,182.558 268.829,181.438 267.498 C 179.732 265.471,180.024 265.234,184.230 265.234 L 187.990 265.234 187.734 263.631 C 187.072 259.489,183.597 257.675,180.242 259.721 M189.844 264.844 L 189.844 270.703 191.211 270.703 L 192.578 270.703 192.578 266.857 C 192.578 262.605,193.004 261.719,195.050 261.719 C 195.924 261.719,196.094 261.547,196.094 260.664 C 196.094 258.799,196.813 260.190,198.571 265.453 C 200.209 270.358,200.294 270.511,201.440 270.626 C 202.620 270.744,202.621 270.742,204.728 265.184 C 205.887 262.125,206.895 259.479,206.966 259.304 C 207.038 259.128,206.473 258.984,205.711 258.984 L 204.325 258.984 203.084 262.900 C 202.401 265.054,201.735 266.712,201.605 266.584 C 201.474 266.456,200.826 264.738,200.164 262.766 L 198.961 259.180 196.626 259.065 C 194.683 258.970,194.171 259.085,193.570 259.749 C 192.657 260.758,192.188 260.764,192.188 259.766 C 192.188 259.158,191.927 258.984,191.016 258.984 L 189.844 258.984 189.844 264.844 M208.464 259.245 C 208.320 259.388,208.203 262.025,208.203 265.104 L 208.203 270.703 209.570 270.703 L 210.938 270.703 210.938 264.844 L 210.938 258.984 209.831 258.984 C 209.222 258.984,208.607 259.102,208.464 259.245 M225.927 259.369 C 222.979 260.560,222.043 266.668,224.416 269.227 C 226.613 271.596,233.194 271.659,232.578 269.305 C 232.394 268.602,232.117 268.537,229.919 268.677 C 227.623 268.823,227.412 268.765,226.624 267.762 C 224.921 265.598,225.334 265.234,229.492 265.234 L 233.203 265.234 233.203 264.024 C 233.203 260.271,229.524 257.917,225.927 259.369 M236.154 259.863 C 233.801 261.934,234.784 264.594,238.510 266.242 C 240.799 267.255,241.113 267.569,240.626 268.359 C 240.184 269.073,237.945 269.000,236.441 268.223 C 234.790 267.368,233.758 269.109,235.312 270.127 C 237.974 271.871,242.421 270.915,243.117 268.449 C 243.685 266.433,242.960 265.399,239.968 263.958 C 236.147 262.117,236.694 260.031,240.655 261.338 C 242.310 261.884,242.947 261.582,242.963 260.244 C 242.980 258.795,237.704 258.499,236.154 259.863 M184.737 261.967 C 185.947 263.505,185.777 263.672,183.008 263.672 C 180.218 263.672,179.911 263.339,181.318 261.842 C 182.439 260.649,183.738 260.696,184.737 261.967 M229.754 261.584 C 231.258 262.945,230.691 263.672,228.125 263.672 C 225.539 263.672,225.205 263.266,226.578 261.792 C 227.526 260.775,228.770 260.693,229.754 261.584 " stroke="none" fill="#13c592" fill-rule="evenodd"></path><path id="path1" d="M0.000 200.000 L 0.000 400.000 200.000 400.000 L 400.000 400.000 400.000 200.000 L 400.000 0.000 200.000 0.000 L 0.000 0.000 0.000 200.000 M205.763 105.566 C 205.663 105.869,204.725 106.088,203.289 106.144 C 170.387 107.412,143.572 127.979,134.907 158.594 C 133.691 162.889,132.422 170.619,132.422 173.730 C 132.422 175.989,131.786 177.048,131.132 175.879 C 130.958 175.568,131.767 167.276,132.228 164.648 C 138.097 131.185,168.065 105.727,202.279 105.141 C 205.042 105.093,205.886 105.196,205.763 105.566 M216.602 107.427 C 242.938 112.461,266.257 136.456,271.303 163.717 C 272.339 169.310,273.651 168.809,258.519 168.599 C 244.167 168.401,245.016 168.571,244.949 165.878 C 244.927 164.956,243.447 160.042,242.374 157.324 C 242.191 156.861,242.289 156.641,242.677 156.641 C 243.265 156.641,244.497 160.028,245.306 163.867 C 246.106 167.670,245.955 167.578,251.433 167.578 L 256.250 167.578 256.250 165.779 C 256.250 156.039,246.954 140.036,236.262 131.371 C 229.542 125.925,215.520 119.722,214.940 121.939 C 214.752 122.659,214.533 122.719,212.931 122.489 C 207.106 121.653,204.068 121.452,200.586 121.671 C 195.617 121.983,189.180 123.001,187.808 123.691 C 186.853 124.171,186.709 124.149,186.343 123.465 C 185.667 122.202,185.866 121.971,187.598 122.016 C 188.511 122.039,191.016 121.735,193.164 121.339 C 197.519 120.538,204.015 120.343,210.059 120.832 C 213.700 121.127,214.063 121.096,214.063 120.489 C 214.063 118.435,226.644 123.158,233.395 127.745 C 245.586 136.030,255.573 151.468,257.006 164.244 C 257.190 165.890,257.406 167.302,257.485 167.381 C 257.676 167.571,265.161 167.766,268.262 167.661 L 270.703 167.578 270.703 166.235 C 270.703 161.593,267.036 151.092,262.747 143.450 C 252.153 124.577,234.407 111.716,214.062 108.166 C 208.627 107.218,208.806 107.278,209.101 106.508 C 209.267 106.078,209.653 106.026,210.810 106.279 C 211.632 106.459,214.238 106.976,216.602 107.427 M210.166 112.130 C 216.481 112.915,227.696 115.940,229.082 117.232 C 230.217 118.290,228.453 118.267,225.646 117.186 C 191.458 104.022,151.493 124.776,141.251 161.012 C 139.371 167.665,139.730 168.081,147.175 167.884 L 151.365 167.773 151.650 165.492 C 151.927 163.267,153.098 158.515,154.054 155.734 C 154.373 154.805,154.687 154.446,155.008 154.644 C 155.381 154.874,155.361 155.240,154.921 156.293 C 154.027 158.432,152.683 164.023,152.404 166.763 L 152.148 169.268 149.219 169.178 C 137.687 168.822,137.903 169.037,140.459 160.460 C 149.538 130.000,180.609 108.458,210.166 112.130 M233.707 122.266 C 236.650 122.266,249.192 134.031,254.122 141.417 C 259.236 149.080,265.403 165.625,263.145 165.625 C 262.784 165.625,262.538 164.938,262.392 163.520 C 261.161 151.593,250.879 135.875,238.147 126.455 C 236.180 125.000,234.261 123.549,233.882 123.232 C 233.504 122.916,232.845 122.656,232.417 122.656 C 231.530 122.656,231.422 122.250,232.124 121.548 C 232.507 121.165,232.697 121.189,233.046 121.665 C 233.287 121.996,233.585 122.266,233.707 122.266 M183.984 122.481 C 183.984 122.815,183.454 123.272,182.805 123.499 C 178.667 124.941,171.972 128.839,167.668 132.312 C 161.949 136.927,156.422 143.221,157.711 143.651 C 157.957 143.733,159.319 144.668,160.738 145.728 C 163.873 148.072,163.459 148.112,165.820 145.236 C 168.982 141.385,178.133 133.594,179.496 133.594 C 180.075 133.594,179.557 134.807,178.809 135.204 C 175.743 136.831,169.011 142.931,164.747 147.947 L 163.673 149.210 160.255 146.603 C 158.374 145.169,156.814 143.985,156.787 143.971 C 153.669 142.364,169.731 128.043,179.688 123.552 C 183.861 121.670,183.984 121.639,183.984 122.481 M191.016 126.107 C 191.016 126.287,189.565 126.923,187.793 127.522 C 181.264 129.726,175.780 133.149,170.735 138.166 C 168.352 140.537,167.357 141.298,167.118 140.933 C 166.721 140.326,171.090 135.985,175.195 132.909 C 180.758 128.740,191.016 124.330,191.016 126.107 M213.867 127.125 C 217.969 128.218,225.198 131.425,226.136 132.567 C 227.066 133.699,226.083 134.139,224.827 133.151 C 224.229 132.680,222.167 131.617,220.245 130.789 C 211.634 127.077,203.641 126.183,193.555 127.804 C 193.006 127.892,192.773 127.711,192.773 127.195 C 192.773 126.587,193.141 126.432,194.916 126.289 C 196.095 126.195,197.150 126.023,197.260 125.907 C 197.900 125.234,210.141 126.132,213.867 127.125 M211.719 132.360 C 217.528 133.888,224.658 137.348,224.928 138.770 C 225.112 139.743,224.507 139.621,222.533 138.289 C 206.231 127.287,182.404 132.975,170.333 150.752 C 169.190 152.434,168.543 153.075,168.267 152.798 C 167.235 151.767,175.613 142.335,180.859 138.621 C 190.015 132.139,201.794 129.749,211.719 132.360 M231.963 133.737 C 233.182 134.675,234.930 136.257,235.848 137.253 C 237.803 139.373,237.717 139.346,238.392 138.057 C 238.846 137.191,238.986 137.132,239.401 137.633 C 239.793 138.104,239.742 138.349,239.136 138.931 C 238.725 139.326,238.320 139.841,238.237 140.077 C 238.028 140.670,227.678 148.438,227.097 148.438 C 226.838 148.438,225.748 147.690,224.675 146.777 C 207.431 132.102,181.315 138.359,171.473 159.524 C 169.896 162.917,168.547 168.166,168.849 169.742 C 168.950 170.271,168.983 170.703,168.923 170.703 C 168.863 170.703,168.536 170.810,168.196 170.940 C 165.933 171.809,169.444 159.703,173.048 154.214 C 185.053 135.926,208.597 132.005,225.200 145.529 L 227.308 147.245 231.818 143.681 C 234.298 141.721,236.328 139.950,236.328 139.746 C 236.328 139.261,233.156 136.251,230.570 134.283 C 228.724 132.877,228.265 132.031,229.350 132.031 C 229.568 132.031,230.744 132.799,231.963 133.737 M242.081 143.255 C 242.224 143.627,243.075 144.990,243.973 146.282 C 247.648 151.574,251.615 160.518,250.750 161.561 C 250.058 162.395,249.490 162.216,249.745 161.244 C 250.256 159.290,244.306 147.526,241.138 144.227 C 240.631 143.699,240.850 142.578,241.460 142.578 C 241.659 142.578,241.938 142.883,242.081 143.255 M237.891 146.533 C 237.139 147.187,234.985 148.958,233.105 150.470 C 231.226 151.982,229.688 153.374,229.688 153.563 C 229.688 154.004,228.627 154.012,228.355 153.572 C 228.242 153.389,230.048 151.728,232.369 149.882 C 234.690 148.035,236.816 146.252,237.093 145.919 C 237.369 145.585,237.970 145.320,238.427 145.328 C 239.162 145.342,239.100 145.482,237.891 146.533 M154.449 148.200 C 154.787 148.623,162.499 155.148,165.118 157.227 C 165.428 157.472,165.484 157.818,165.268 158.160 C 165.000 158.584,164.514 158.325,163.029 156.969 C 161.986 156.015,159.639 154.015,157.813 152.523 C 155.986 151.032,154.252 149.582,153.959 149.302 C 153.665 149.022,153.226 148.857,152.982 148.934 C 151.624 149.367,146.542 162.607,146.837 164.941 C 146.888 165.338,146.668 165.625,146.314 165.625 C 145.554 165.625,145.542 165.836,146.532 161.788 C 147.911 156.152,151.416 148.255,152.689 147.916 C 153.812 147.616,154.008 147.647,154.449 148.200 M217.874 173.739 L 217.773 199.699 203.024 199.633 C 185.677 199.556,185.558 199.581,190.649 202.161 C 197.631 205.699,206.411 206.053,214.719 203.133 C 217.369 202.202,217.578 202.182,217.578 202.861 C 217.578 203.533,212.008 205.344,208.217 205.905 C 201.042 206.966,191.240 204.671,186.327 200.780 C 185.514 200.136,184.478 199.609,184.026 199.609 L 183.203 199.609 183.203 177.804 C 183.203 146.066,181.901 147.878,204.748 147.816 L 217.974 147.780 217.874 173.739 M189.453 149.262 C 188.069 149.815,186.015 151.879,185.024 153.711 C 183.962 155.676,183.487 193.474,184.481 196.875 L 184.995 198.633 200.994 198.633 L 216.992 198.633 216.992 173.828 L 216.992 149.023 203.711 148.948 C 195.596 148.902,190.050 149.024,189.453 149.262 M240.775 151.353 C 241.647 152.684,241.625 154.084,240.752 152.832 C 239.891 151.597,240.171 151.450,233.172 156.836 C 227.721 161.032,224.959 162.659,225.456 161.384 C 225.607 160.997,239.525 150.407,239.896 150.397 C 240.033 150.394,240.428 150.824,240.775 151.353 M210.707 154.327 L 211.719 155.529 211.719 173.487 C 211.719 192.776,211.663 193.343,209.721 193.960 C 208.141 194.461,191.297 193.729,190.332 193.117 L 189.453 192.560 189.455 175.284 C 189.458 151.560,188.491 153.238,202.211 153.165 L 209.696 153.125 210.707 154.327 M192.164 155.180 C 190.302 156.435,190.316 156.291,190.273 174.707 C 190.226 195.106,189.339 192.969,197.852 192.969 L 203.906 192.969 203.906 176.172 L 203.906 159.375 202.376 159.375 C 201.534 159.375,200.567 159.268,200.227 159.138 C 199.670 158.924,199.609 160.375,199.609 173.804 L 199.609 188.708 196.973 188.592 L 194.336 188.477 194.234 173.535 L 194.131 158.594 199.409 158.594 L 204.688 158.594 204.710 163.965 C 204.722 166.919,204.819 174.609,204.926 181.055 L 205.121 192.773 207.335 192.893 C 210.743 193.078,210.547 194.259,210.547 173.580 L 210.547 155.513 209.679 154.905 C 208.106 153.803,193.875 154.027,192.164 155.180 M159.605 159.863 C 159.466 160.347,159.050 161.797,158.680 163.086 C 158.139 164.972,158.009 167.030,158.012 173.633 C 158.017 183.134,158.113 183.502,160.515 183.273 L 162.109 183.121 162.109 176.990 C 162.109 172.622,161.969 170.711,161.621 170.342 C 161.230 169.928,161.230 169.788,161.621 169.645 C 161.890 169.547,162.109 169.217,162.109 168.913 C 162.109 168.608,162.289 168.359,162.508 168.359 C 162.770 168.359,162.870 171.080,162.801 176.270 L 162.695 184.180 160.938 184.180 C 159.240 184.180,159.175 184.223,159.057 185.449 C 158.912 186.956,158.318 187.117,157.973 185.742 C 157.744 184.828,157.561 184.763,155.133 184.728 C 147.782 184.621,144.375 184.363,144.076 183.892 C 143.509 183.000,143.733 182.847,144.974 183.280 C 146.360 183.763,156.525 183.475,157.063 182.937 C 157.243 182.757,157.205 180.853,156.977 178.707 C 156.389 173.166,157.121 163.322,158.406 159.473 C 158.721 158.529,159.879 158.906,159.605 159.863 M194.922 173.633 L 194.922 187.891 196.680 187.891 L 198.438 187.891 198.441 175.684 C 198.443 168.970,198.555 162.554,198.691 161.426 L 198.937 159.375 196.929 159.375 L 194.922 159.375 194.922 173.633 M240.511 164.746 C 240.510 165.337,240.556 168.633,240.614 172.070 C 240.700 177.116,240.617 178.341,240.184 178.428 C 239.748 178.516,239.648 177.387,239.648 172.373 C 239.648 168.984,239.521 165.640,239.365 164.941 C 239.126 163.868,239.193 163.672,239.797 163.672 C 240.318 163.672,240.512 163.964,240.511 164.746 M252.344 164.892 C 252.344 165.080,251.992 165.234,251.563 165.234 C 250.812 165.234,250.503 164.470,251.038 163.936 C 251.334 163.640,252.344 164.379,252.344 164.892 M234.082 167.783 C 234.185 168.325,234.118 168.863,233.932 168.978 C 233.746 169.093,233.586 172.736,233.577 177.074 C 233.555 187.192,233.226 190.004,231.701 193.100 C 230.325 195.896,225.767 200.619,224.803 200.249 C 223.878 199.894,224.113 199.348,225.580 198.441 C 226.914 197.617,229.790 194.418,230.769 192.670 C 232.062 190.359,232.448 186.776,232.407 177.432 C 232.380 171.177,232.503 168.137,232.785 168.043 C 233.015 167.966,233.203 167.655,233.203 167.350 C 233.203 166.407,233.883 166.742,234.082 167.783 M172.239 175.440 C 172.205 181.078,172.331 181.425,174.387 181.367 C 176.534 181.306,176.563 181.229,176.563 175.563 C 176.563 172.323,176.712 170.313,176.953 170.313 C 177.686 170.313,177.449 180.877,176.697 181.708 C 175.476 183.057,171.647 182.340,171.289 180.695 C 170.697 177.973,170.915 170.311,171.584 170.312 C 172.205 170.312,172.267 170.799,172.239 175.440 M227.344 174.414 C 227.344 176.888,227.189 178.516,226.953 178.516 C 226.718 178.516,226.563 176.888,226.563 174.414 C 226.563 171.940,226.718 170.313,226.953 170.313 C 227.189 170.313,227.344 171.940,227.344 174.414 M272.887 173.631 C 272.438 174.308,271.867 174.429,268.663 174.525 L 264.957 174.636 264.718 177.739 C 264.180 184.713,263.512 189.063,262.977 189.063 C 262.476 189.063,262.540 187.467,263.157 184.570 C 263.249 184.141,263.427 181.592,263.554 178.906 C 263.823 173.180,263.688 173.344,267.866 173.669 C 270.659 173.887,271.116 173.833,271.334 173.265 C 271.472 172.906,271.826 172.704,272.121 172.817 C 272.445 172.941,272.659 172.758,272.662 172.351 C 272.667 171.778,272.722 171.765,273.037 172.263 C 273.283 172.652,273.233 173.109,272.887 173.631 M146.426 173.827 C 150.862 173.804,154.659 173.795,154.863 173.807 C 155.067 173.819,155.029 174.033,154.778 174.284 C 154.454 174.608,152.002 174.714,146.302 174.651 L 138.281 174.561 138.295 177.808 C 138.302 179.594,138.557 182.449,138.860 184.152 C 139.396 187.156,139.350 188.114,138.690 187.706 C 137.890 187.212,136.956 173.864,137.686 173.352 C 137.906 173.198,138.148 173.251,138.223 173.470 C 138.310 173.725,141.262 173.853,146.426 173.827 M254.516 173.477 C 258.857 173.493,259.306 174.489,258.193 181.641 C 257.400 186.735,257.757 186.281,254.446 186.410 L 251.525 186.523 250.602 189.170 L 249.678 191.816 254.352 191.770 L 259.026 191.723 258.410 190.784 C 257.642 189.612,258.290 189.550,259.355 190.693 C 261.072 192.537,260.601 195.451,257.388 202.860 C 256.547 204.798,255.859 206.706,255.859 207.099 C 255.859 207.946,254.972 208.040,254.326 207.261 C 253.976 206.840,253.977 206.643,254.328 206.426 C 255.343 205.799,260.202 193.665,259.656 193.120 C 259.552 193.015,256.720 192.920,253.364 192.908 C 250.008 192.896,246.644 192.746,245.887 192.576 C 244.245 192.205,242.969 192.473,242.969 193.187 C 242.969 193.731,242.257 194.340,241.964 194.047 C 241.869 193.953,242.224 191.958,242.753 189.614 C 243.703 185.396,244.439 180.352,244.885 175.000 C 244.928 174.479,244.977 174.479,245.326 175.000 C 245.720 175.589,245.621 177.182,244.878 182.227 C 244.461 185.054,243.550 189.765,243.120 191.314 C 242.930 192.000,243.008 192.148,243.467 191.972 C 243.793 191.847,245.170 191.712,246.528 191.673 L 248.996 191.602 249.652 189.453 C 250.260 187.459,250.261 187.251,249.665 186.554 C 249.312 186.141,249.243 185.932,249.512 186.089 C 249.804 186.260,250.000 186.158,250.000 185.835 C 250.000 185.406,250.666 185.331,253.261 185.467 C 257.000 185.664,256.899 185.751,257.295 181.966 L 257.533 179.688 252.595 179.688 C 244.604 179.688,246.627 178.897,255.859 178.413 L 257.617 178.320 257.617 176.367 L 257.617 174.414 253.320 174.414 C 249.293 174.414,247.855 174.063,248.946 173.346 C 249.204 173.177,249.820 173.135,250.317 173.252 C 250.813 173.369,252.703 173.470,254.516 173.477 M154.046 179.671 C 154.328 179.953,154.309 180.222,153.984 180.547 C 153.620 180.911,153.411 180.911,153.047 180.547 C 152.738 180.238,151.076 180.078,148.164 180.078 C 144.055 180.078,143.298 179.902,144.043 179.119 C 144.461 178.680,153.557 179.182,154.046 179.671 M228.125 180.859 L 228.125 182.422 226.367 182.422 L 224.609 182.422 224.609 180.859 L 224.609 179.297 226.367 179.297 L 228.125 179.297 228.125 180.859 M169.400 185.547 C 171.986 195.783,181.314 205.736,191.754 209.396 C 210.578 215.996,233.558 204.585,237.818 186.523 C 238.338 184.319,238.745 183.361,239.199 183.272 C 239.982 183.119,239.993 183.362,239.308 185.575 C 239.013 186.526,238.470 188.359,238.102 189.648 C 236.672 194.651,232.477 200.343,227.158 204.496 L 223.828 207.096 223.824 211.849 C 223.819 216.947,223.541 219.531,222.996 219.531 C 222.809 219.531,222.656 216.895,222.656 213.672 C 222.656 210.449,222.599 207.813,222.530 207.813 C 222.460 207.813,220.968 208.434,219.214 209.194 C 203.398 216.049,185.433 212.020,175.375 199.363 C 171.581 194.589,168.490 188.612,167.754 184.630 C 167.281 182.065,168.724 182.869,169.400 185.547 M163.854 188.574 C 168.960 209.094,195.876 222.809,216.466 215.381 C 219.036 214.455,220.151 214.389,219.310 215.215 C 216.386 218.085,200.532 219.275,192.773 217.208 C 180.804 214.018,169.690 204.391,164.293 192.537 L 162.801 189.258 158.256 189.258 C 155.756 189.258,153.503 189.393,153.250 189.557 C 152.782 189.861,152.627 189.723,152.259 188.672 C 152.082 188.169,152.798 188.089,157.298 188.111 C 160.183 188.125,162.632 187.993,162.740 187.818 C 163.124 187.198,163.591 187.515,163.854 188.574 M145.676 190.723 C 146.448 193.816,148.606 199.250,150.580 203.073 C 152.525 206.838,152.585 207.031,151.803 207.031 C 151.020 207.031,146.275 197.271,145.156 193.359 C 144.634 191.533,144.086 189.731,143.937 189.355 C 143.736 188.848,143.859 188.672,144.416 188.672 C 144.994 188.672,145.281 189.139,145.676 190.723 M159.778 192.947 C 159.347 193.751,159.794 194.605,164.253 201.484 C 167.798 206.954,174.667 213.375,180.757 216.912 C 183.408 218.452,184.155 219.141,183.176 219.141 C 182.946 219.141,181.408 218.322,179.758 217.321 C 171.025 212.025,165.006 205.710,160.323 196.930 C 158.534 193.577,158.142 193.359,153.881 193.359 C 151.386 193.359,150.781 193.245,150.781 192.773 C 150.781 192.285,151.564 192.188,155.482 192.188 C 160.017 192.188,160.169 192.214,159.778 192.947 M156.389 198.345 C 158.204 201.987,161.722 206.981,163.789 208.849 C 164.687 209.660,165.210 210.437,165.083 210.769 C 164.819 211.457,164.065 211.509,164.056 210.840 C 164.052 210.571,163.333 209.648,162.457 208.789 C 158.698 205.101,152.967 195.287,154.590 195.318 C 154.751 195.321,155.560 196.684,156.389 198.345 M252.007 199.896 C 248.764 205.991,243.974 212.368,243.523 211.191 C 243.347 210.733,243.821 209.939,245.062 208.612 C 248.044 205.425,252.344 198.262,252.344 196.484 C 252.344 195.811,252.468 195.742,253.087 196.073 C 253.787 196.448,253.725 196.667,252.007 199.896 M239.578 199.458 C 235.868 204.778,226.326 213.592,225.342 212.608 C 225.109 212.375,226.008 211.467,227.771 210.156 C 231.575 207.328,235.352 203.477,238.292 199.430 C 241.245 195.366,242.415 195.391,239.578 199.458 M247.459 198.044 C 247.780 198.563,242.806 205.825,240.029 208.893 C 235.598 213.789,227.456 219.631,226.563 218.555 C 226.203 218.121,226.410 217.863,227.608 217.251 C 233.471 214.257,246.094 201.244,246.094 198.193 C 246.094 197.576,247.102 197.466,247.459 198.044 M149.115 209.681 C 152.677 215.081,152.259 214.844,158.225 214.844 L 163.362 214.844 166.533 217.642 C 169.916 220.629,173.807 223.319,175.275 223.688 C 176.277 223.939,176.512 225.000,175.567 225.000 C 174.062 225.000,169.204 221.780,165.290 218.188 L 162.497 215.625 157.429 215.625 L 152.362 215.625 150.775 213.618 C 148.636 210.912,146.484 207.637,146.484 207.088 C 146.484 206.080,147.213 206.798,149.115 209.681 M261.719 208.426 C 261.719 208.533,260.562 210.197,259.148 212.123 L 256.578 215.625 251.222 215.625 L 245.866 215.625 244.124 217.409 C 241.144 220.461,231.365 227.342,230.004 227.343 C 229.856 227.344,229.680 226.685,229.613 225.879 C 229.472 224.169,229.775 224.152,224.833 226.159 C 220.357 227.977,220.703 227.892,220.703 227.175 C 220.703 226.867,221.099 226.493,221.582 226.343 C 222.065 226.194,224.119 225.300,226.145 224.357 C 230.011 222.559,230.667 222.583,230.337 224.512 C 229.989 226.542,235.848 223.070,242.386 217.369 L 245.820 214.375 248.265 214.636 C 249.609 214.780,251.959 214.775,253.487 214.624 L 256.264 214.351 258.207 211.765 C 259.275 210.343,260.150 208.778,260.152 208.287 C 260.156 207.516,260.262 207.451,260.938 207.813 C 261.367 208.042,261.719 208.319,261.719 208.426 M223.942 221.121 C 222.407 222.583,211.654 224.966,205.273 225.258 C 197.150 225.630,183.689 223.015,184.078 221.141 C 184.240 220.359,184.524 220.402,188.749 221.847 C 197.108 224.705,206.919 224.924,216.797 222.472 C 221.124 221.398,222.479 220.916,222.848 220.318 C 223.042 220.004,223.274 220.015,223.684 220.355 C 223.996 220.614,224.113 220.959,223.942 221.121 M179.637 222.411 C 181.148 223.135,182.745 223.821,183.185 223.936 C 184.040 224.160,184.299 225.000,183.513 225.000 C 183.254 225.000,181.653 224.348,179.955 223.551 C 177.063 222.194,176.835 222.146,176.364 222.790 C 175.792 223.573,175.388 222.961,175.695 221.777 C 175.943 220.819,176.506 220.910,179.637 222.411 M173.047 240.039 C 173.047 247.703,172.955 249.219,172.493 249.219 C 172.188 249.219,171.684 249.317,171.371 249.437 C 171.059 249.556,170.510 249.360,170.150 249.001 C 169.548 248.399,169.442 248.397,168.800 248.978 C 167.028 250.582,163.001 249.389,161.723 246.883 C 158.826 241.205,163.392 235.066,168.848 237.303 C 169.465 237.557,169.531 237.280,169.531 234.444 C 169.531 231.037,169.504 231.074,172.168 230.913 L 173.047 230.859 173.047 240.039 M263.672 234.221 C 263.672 237.279,263.734 237.556,264.355 237.280 C 269.065 235.189,271.094 237.427,271.094 244.714 L 271.094 249.219 269.336 249.219 L 267.578 249.219 267.578 245.287 C 267.578 240.803,267.245 239.844,265.689 239.844 C 263.897 239.844,263.672 240.419,263.672 245.000 L 263.672 249.219 261.914 249.219 L 260.156 249.219 260.156 240.262 L 260.156 231.304 261.035 231.135 C 263.736 230.615,263.672 230.540,263.672 234.221 M205.134 235.156 C 204.983 237.925,204.727 238.430,203.029 239.307 C 201.370 240.166,200.914 239.772,202.094 238.499 C 203.326 237.169,203.400 236.491,202.344 236.215 C 201.730 236.054,201.563 235.682,201.563 234.477 C 201.563 232.543,201.761 232.359,203.697 232.501 L 205.273 232.617 205.134 235.156 M147.656 239.075 C 147.656 246.173,147.314 247.553,145.238 248.818 C 143.680 249.768,140.456 249.876,138.464 249.043 C 136.910 248.394,136.910 248.394,137.705 246.856 C 138.404 245.504,138.213 245.551,139.995 246.296 C 143.502 247.761,144.141 246.621,144.141 238.893 L 144.141 232.813 145.898 232.813 L 147.656 232.813 147.656 239.075 M237.109 234.375 L 237.109 235.938 234.766 235.938 L 232.422 235.938 232.422 242.796 L 232.422 249.654 230.762 249.534 L 229.102 249.414 228.995 242.676 L 228.888 235.938 226.358 235.938 L 223.828 235.938 223.828 234.375 L 223.828 232.813 230.469 232.813 L 237.109 232.813 237.109 234.375 M158.104 238.004 C 159.113 239.012,159.195 239.351,159.419 243.465 C 159.550 245.878,159.786 248.152,159.942 248.519 C 160.314 249.388,158.423 249.935,157.354 249.267 C 156.841 248.946,156.400 248.929,155.876 249.210 C 154.001 250.213,149.646 249.333,149.071 247.834 C 147.888 244.753,149.619 242.498,153.825 241.637 C 156.158 241.159,156.452 240.700,154.964 239.855 C 154.139 239.386,153.643 239.362,152.279 239.726 C 150.230 240.273,150.000 240.147,150.000 238.482 C 150.000 236.886,150.366 236.743,154.198 236.850 C 156.711 236.920,157.149 237.050,158.104 238.004 M184.789 238.555 C 189.194 243.277,185.346 251.018,179.274 249.648 C 171.648 247.928,173.227 236.266,181.012 236.811 C 183.108 236.958,183.445 237.113,184.789 238.555 M191.208 237.367 C 191.650 237.971,191.746 237.971,192.608 237.367 C 196.673 234.520,199.412 238.095,199.144 245.898 L 199.023 249.414 197.852 249.364 C 197.207 249.336,196.460 249.292,196.191 249.266 C 195.836 249.232,195.703 248.147,195.703 245.287 C 195.703 240.788,195.372 239.844,193.797 239.844 C 191.873 239.844,191.448 240.785,191.323 245.327 L 191.211 249.414 189.648 249.414 L 188.086 249.414 187.979 243.292 C 187.880 237.705,187.932 237.155,188.564 236.990 C 189.970 236.624,190.746 236.735,191.208 237.367 M215.442 237.285 C 216.998 237.935,217.051 238.124,216.043 239.435 C 215.386 240.290,215.196 240.342,214.276 239.923 C 210.608 238.252,210.040 240.162,213.672 241.952 C 220.461 245.297,215.464 252.001,208.386 249.043 C 206.849 248.401,206.749 248.083,207.715 246.921 C 208.372 246.130,208.466 246.122,210.133 246.706 C 213.746 247.971,214.941 246.352,211.621 244.690 C 204.668 241.211,208.245 234.278,215.442 237.285 M245.363 237.331 C 246.768 238.057,248.026 240.571,248.038 242.676 C 248.047 244.140,248.046 244.141,246.387 244.144 C 243.912 244.149,240.625 244.599,240.625 244.933 C 240.625 246.258,242.175 247.045,244.640 246.972 C 248.607 246.855,248.943 248.847,245.081 249.579 C 240.618 250.426,237.554 248.352,236.849 244.009 C 236.052 239.097,241.108 235.130,245.363 237.331 M257.754 237.148 C 259.153 237.635,259.261 238.095,258.275 239.376 C 257.670 240.162,257.442 240.223,256.474 239.855 C 254.216 238.996,252.766 240.225,252.747 243.014 C 252.727 245.908,253.857 247.034,256.472 246.727 C 259.030 246.426,260.450 248.423,258.286 249.277 C 253.457 251.182,249.414 248.428,249.414 243.233 C 249.414 238.145,253.035 235.502,257.754 237.148 M166.124 239.880 C 163.474 240.861,164.080 246.875,166.830 246.875 C 168.241 246.875,169.531 245.153,169.531 243.269 C 169.531 240.597,168.082 239.156,166.124 239.880 M241.313 239.941 C 239.856 241.064,240.293 241.951,242.285 241.914 C 245.062 241.864,244.999 241.892,244.487 240.918 C 243.684 239.394,242.497 239.029,241.313 239.941 M178.300 241.198 C 176.681 245.075,179.597 248.564,182.244 245.916 C 184.314 243.847,182.983 239.844,180.225 239.844 C 179.044 239.844,178.792 240.021,178.300 241.198 M153.906 244.260 C 152.149 244.859,151.819 246.262,153.278 246.927 C 154.692 247.571,156.250 246.515,156.250 244.913 C 156.250 243.632,155.975 243.555,153.906 244.260 M210.938 255.859 C 210.938 256.938,210.829 257.031,209.570 257.031 C 208.312 257.031,208.203 256.938,208.203 255.859 C 208.203 254.781,208.312 254.688,209.570 254.688 C 210.829 254.688,210.938 254.781,210.938 255.859 M174.865 255.664 C 176.209 256.226,176.242 256.287,175.675 257.129 C 175.076 258.018,174.970 258.030,171.825 257.560 C 170.666 257.387,170.298 257.506,169.804 258.211 C 168.932 259.456,169.262 259.908,172.522 261.939 C 176.291 264.288,177.093 266.258,175.408 269.022 C 174.047 271.254,168.438 271.730,166.488 269.780 C 165.792 269.084,166.672 267.438,167.578 267.740 C 170.638 268.758,171.476 268.879,172.436 268.442 C 174.386 267.553,173.620 265.705,170.703 264.261 C 163.328 260.610,167.261 252.487,174.865 255.664 M220.140 259.031 C 221.941 259.484,222.216 259.933,221.387 261.062 C 220.968 261.633,220.722 261.660,219.656 261.257 C 217.260 260.350,215.625 261.943,215.625 265.186 C 215.625 267.653,218.031 269.381,220.134 268.423 C 221.267 267.907,222.585 269.262,221.832 270.169 C 221.101 271.049,218.103 271.253,216.292 270.545 C 211.458 268.654,211.717 260.476,216.657 258.995 C 218.185 258.538,218.181 258.538,220.140 259.031 M185.110 259.417 C 186.509 259.905,187.356 261.265,187.734 263.631 L 187.990 265.234 184.230 265.234 C 180.024 265.234,179.732 265.471,181.438 267.498 C 182.558 268.829,184.148 269.263,185.979 268.738 C 188.235 268.091,188.711 269.981,186.478 270.718 C 181.926 272.220,177.737 269.434,177.735 264.903 C 177.733 260.486,181.065 258.007,185.110 259.417 M192.188 259.766 C 192.188 260.764,192.657 260.758,193.570 259.749 C 194.171 259.085,194.683 258.970,196.626 259.065 L 198.961 259.180 200.164 262.766 C 200.826 264.738,201.474 266.456,201.605 266.584 C 201.735 266.712,202.401 265.054,203.084 262.900 L 204.325 258.984 205.711 258.984 C 206.473 258.984,207.038 259.128,206.966 259.304 C 206.895 259.479,205.887 262.125,204.728 265.184 C 202.621 270.742,202.620 270.744,201.440 270.626 C 200.294 270.511,200.209 270.358,198.571 265.453 C 196.813 260.190,196.094 258.799,196.094 260.664 C 196.094 261.547,195.924 261.719,195.050 261.719 C 193.004 261.719,192.578 262.605,192.578 266.857 L 192.578 270.703 191.211 270.703 L 189.844 270.703 189.844 264.844 L 189.844 258.984 191.016 258.984 C 191.927 258.984,192.188 259.158,192.188 259.766 M210.938 264.844 L 210.938 270.703 209.570 270.703 L 208.203 270.703 208.203 265.104 C 208.203 259.012,208.211 258.984,209.831 258.984 L 210.938 258.984 210.938 264.844 M230.826 259.553 C 232.102 260.213,233.203 262.284,233.203 264.024 L 233.203 265.234 229.492 265.234 C 225.334 265.234,224.921 265.598,226.624 267.762 C 227.412 268.765,227.623 268.823,229.919 268.677 C 233.787 268.431,233.972 270.357,230.137 270.937 C 225.490 271.640,222.596 268.720,223.142 263.878 C 223.591 259.895,227.372 257.767,230.826 259.553 M241.967 259.365 C 244.157 260.198,242.905 262.081,240.655 261.338 C 236.694 260.031,236.147 262.117,239.968 263.958 C 242.960 265.399,243.685 266.433,243.117 268.449 C 242.421 270.915,237.974 271.871,235.312 270.127 C 233.758 269.109,234.790 267.368,236.441 268.223 C 237.945 269.000,240.184 269.073,240.626 268.359 C 241.113 267.569,240.799 267.255,238.510 266.242 C 232.094 263.405,235.383 256.862,241.967 259.365 M181.318 261.842 C 179.911 263.339,180.218 263.672,183.008 263.672 C 185.777 263.672,185.947 263.505,184.737 261.967 C 183.738 260.696,182.439 260.649,181.318 261.842 M226.578 261.792 C 225.205 263.266,225.539 263.672,228.125 263.672 C 230.143 263.672,230.469 263.572,230.469 262.951 C 230.469 261.105,227.924 260.347,226.578 261.792 " stroke="none" fill="#040c14" fill-rule="evenodd"></path></g></svg>